<mxfile host="drawio-plugin" modified="2021-06-19T21:00:06.859Z" agent="5.0 (Windows NT 6.2; Win64; x64) AppleWebKit/537.36 (KHTML, like Gecko) Chrome/87.0.4280.141 Safari/537.36" etag="cJTP9TO9Z1TjqVpPqFrx" version="14.7.4" type="embed"><diagram id="6S-CpnNjieM1FnQHdhQr" name="Page-1"><mxGraphModel dx="1580" dy="670" grid="1" gridSize="10" guides="1" tooltips="1" connect="1" arrows="1" fold="1" page="1" pageScale="1" pageWidth="1169" pageHeight="827" background="none" math="0" shadow="0"><root><mxCell id="0"/><mxCell id="1" parent="0"/><mxCell id="3uPyM4dLJkamjNfrwiah-6" value="" style="line;strokeWidth=4;direction=south;html=1;perimeter=backbonePerimeter;points=[];outlineConnect=0;" parent="1" vertex="1"><mxGeometry x="760" y="40" width="10" height="760" as="geometry"/></mxCell><mxCell id="3uPyM4dLJkamjNfrwiah-5" value="" style="line;strokeWidth=4;direction=south;html=1;perimeter=backbonePerimeter;points=[];outlineConnect=0;" parent="1" vertex="1"><mxGeometry x="480" y="40" width="10" height="760" as="geometry"/></mxCell><mxCell id="6" style="edgeStyle=orthogonalEdgeStyle;rounded=0;orthogonalLoop=1;jettySize=auto;html=1;" edge="1" parent="1" source="lvuvdrBWyZiA24m6l7V2-1" target="lvuvdrBWyZiA24m6l7V2-2"><mxGeometry relative="1" as="geometry"/></mxCell><mxCell id="lvuvdrBWyZiA24m6l7V2-1" value="&lt;div&gt;Smart Client (SignalR)&lt;/div&gt;&lt;div&gt;&lt;hr&gt;&lt;/div&gt;&lt;div&gt;Fake-Data&lt;/div&gt;&lt;div&gt;RaspberryPi&lt;/div&gt;" style="rounded=0;whiteSpace=wrap;html=1;fillColor=#F5AB50;strokeColor=#909090;fontColor=#1A1A1A;" parent="1" vertex="1"><mxGeometry x="330" y="140" width="130" height="60" as="geometry"/></mxCell><mxCell id="3uPyM4dLJkamjNfrwiah-38" style="edgeStyle=orthogonalEdgeStyle;rounded=0;orthogonalLoop=1;jettySize=auto;html=1;entryX=0.5;entryY=0;entryDx=0;entryDy=0;" parent="1" source="lvuvdrBWyZiA24m6l7V2-2" target="aUC-sAqKPHOMLerEOEC_-3" edge="1"><mxGeometry relative="1" as="geometry"/></mxCell><mxCell id="2" style="edgeStyle=orthogonalEdgeStyle;rounded=0;orthogonalLoop=1;jettySize=auto;html=1;" edge="1" parent="1" source="lvuvdrBWyZiA24m6l7V2-2" target="3uPyM4dLJkamjNfrwiah-26"><mxGeometry relative="1" as="geometry"/></mxCell><mxCell id="4" style="edgeStyle=orthogonalEdgeStyle;rounded=0;orthogonalLoop=1;jettySize=auto;html=1;" edge="1" parent="1" source="lvuvdrBWyZiA24m6l7V2-2"><mxGeometry relative="1" as="geometry"><mxPoint x="630" y="260" as="targetPoint"/></mxGeometry></mxCell><mxCell id="5" style="edgeStyle=orthogonalEdgeStyle;rounded=0;orthogonalLoop=1;jettySize=auto;html=1;entryX=0;entryY=0.5;entryDx=0;entryDy=0;" edge="1" parent="1" source="lvuvdrBWyZiA24m6l7V2-2" target="POxlMTt3T_DVdTNcK8oy-4"><mxGeometry relative="1" as="geometry"/></mxCell><mxCell id="lvuvdrBWyZiA24m6l7V2-2" value="&lt;div&gt;PumpControl-Hub&lt;/div&gt;" style="rounded=0;whiteSpace=wrap;html=1;fillColor=#F5AB50;strokeColor=#909090;fontColor=#1A1A1A;" parent="1" vertex="1"><mxGeometry x="570" y="140" width="120" height="60" as="geometry"/></mxCell><mxCell id="3uPyM4dLJkamjNfrwiah-2" style="edgeStyle=orthogonalEdgeStyle;rounded=0;orthogonalLoop=1;jettySize=auto;html=1;exitX=1;exitY=0.5;exitDx=0;exitDy=0;" parent="1" source="POxlMTt3T_DVdTNcK8oy-4" target="3uPyM4dLJkamjNfrwiah-1" edge="1"><mxGeometry relative="1" as="geometry"/></mxCell><mxCell id="3uPyM4dLJkamjNfrwiah-11" style="edgeStyle=orthogonalEdgeStyle;rounded=0;orthogonalLoop=1;jettySize=auto;html=1;entryX=0;entryY=0.5;entryDx=0;entryDy=0;" parent="1" source="lvuvdrBWyZiA24m6l7V2-7" target="3uPyM4dLJkamjNfrwiah-10" edge="1"><mxGeometry relative="1" as="geometry"/></mxCell><mxCell id="3uPyM4dLJkamjNfrwiah-14" style="edgeStyle=orthogonalEdgeStyle;rounded=0;orthogonalLoop=1;jettySize=auto;html=1;entryX=1;entryY=0.5;entryDx=0;entryDy=0;" parent="1" source="lvuvdrBWyZiA24m6l7V2-7" target="3uPyM4dLJkamjNfrwiah-12" edge="1"><mxGeometry relative="1" as="geometry"/></mxCell><mxCell id="lvuvdrBWyZiA24m6l7V2-7" value="&lt;div&gt;Blazor WASM&lt;/div&gt;&lt;div&gt;LocalStorage&lt;/div&gt;" style="rounded=0;whiteSpace=wrap;html=1;fillColor=#F5AB50;strokeColor=#909090;fontColor=#1A1A1A;" parent="1" vertex="1"><mxGeometry x="800" y="380" width="120" height="60" as="geometry"/></mxCell><mxCell id="7" style="edgeStyle=orthogonalEdgeStyle;rounded=0;orthogonalLoop=1;jettySize=auto;html=1;" edge="1" parent="1" source="aUC-sAqKPHOMLerEOEC_-2" target="aUC-sAqKPHOMLerEOEC_-3"><mxGeometry relative="1" as="geometry"/></mxCell><mxCell id="aUC-sAqKPHOMLerEOEC_-2" value="Dump Client (TCP)&lt;br&gt;&lt;hr&gt;Arduino" style="rounded=0;whiteSpace=wrap;html=1;fillColor=#F5AB50;strokeColor=#909090;fontColor=#1A1A1A;" parent="1" vertex="1"><mxGeometry x="330" y="260" width="130" height="60" as="geometry"/></mxCell><mxCell id="3uPyM4dLJkamjNfrwiah-37" style="edgeStyle=orthogonalEdgeStyle;rounded=0;orthogonalLoop=1;jettySize=auto;html=1;entryX=0;entryY=0.5;entryDx=0;entryDy=0;" parent="1" source="aUC-sAqKPHOMLerEOEC_-3" target="3uPyM4dLJkamjNfrwiah-27" edge="1"><mxGeometry relative="1" as="geometry"/></mxCell><mxCell id="aUC-sAqKPHOMLerEOEC_-3" value="TcpListener" style="rounded=0;whiteSpace=wrap;html=1;fillColor=#F5AB50;strokeColor=#909090;fontColor=#1A1A1A;" parent="1" vertex="1"><mxGeometry x="570" y="260" width="120" height="60" as="geometry"/></mxCell><mxCell id="d6hwshYgIRkwfRydFrzc-7" value="Provider" style="text;html=1;fontSize=24;fontStyle=1;verticalAlign=middle;align=center;" parent="1" vertex="1"><mxGeometry x="240" y="26" width="100" height="40" as="geometry"/></mxCell><mxCell id="POxlMTt3T_DVdTNcK8oy-1" value="Server" style="text;html=1;fontSize=24;fontStyle=1;verticalAlign=middle;align=center;" parent="1" vertex="1"><mxGeometry x="530" y="26" width="100" height="40" as="geometry"/></mxCell><mxCell id="POxlMTt3T_DVdTNcK8oy-2" value="Client" style="text;html=1;fontSize=24;fontStyle=1;verticalAlign=middle;align=center;" parent="1" vertex="1"><mxGeometry x="860" y="26" width="100" height="40" as="geometry"/></mxCell><mxCell id="POxlMTt3T_DVdTNcK8oy-4" value="&lt;div&gt;Blazor Server&lt;/div&gt;&lt;div&gt;Don't know yet&lt;/div&gt;" style="rounded=0;whiteSpace=wrap;html=1;fillColor=#F5AB50;strokeColor=#909090;fontColor=#1A1A1A;" parent="1" vertex="1"><mxGeometry x="800" y="90" width="130" height="60" as="geometry"/></mxCell><mxCell id="3uPyM4dLJkamjNfrwiah-16" style="edgeStyle=orthogonalEdgeStyle;rounded=0;orthogonalLoop=1;jettySize=auto;html=1;entryX=0;entryY=0.5;entryDx=0;entryDy=0;" parent="1" source="POxlMTt3T_DVdTNcK8oy-8" target="3uPyM4dLJkamjNfrwiah-12" edge="1"><mxGeometry relative="1" as="geometry"/></mxCell><mxCell id="POxlMTt3T_DVdTNcK8oy-8" value="Database" style="rounded=0;whiteSpace=wrap;html=1;fillColor=#F5AB50;strokeColor=#909090;fontColor=#1A1A1A;" parent="1" vertex="1"><mxGeometry x="320" y="380" width="120" height="60" as="geometry"/></mxCell><mxCell id="3uPyM4dLJkamjNfrwiah-1" value="PumpControl-Page" style="rounded=0;whiteSpace=wrap;html=1;fillColor=#F5AB50;strokeColor=#909090;fontColor=#1A1A1A;" parent="1" vertex="1"><mxGeometry x="960" y="90" width="120" height="60" as="geometry"/></mxCell><mxCell id="3uPyM4dLJkamjNfrwiah-3" value="PumpControl" style="text;html=1;fontSize=24;fontStyle=1;verticalAlign=middle;align=center;" parent="1" vertex="1"><mxGeometry x="40" y="200" width="160" height="40" as="geometry"/></mxCell><mxCell id="3uPyM4dLJkamjNfrwiah-4" value="" style="line;strokeWidth=4;html=1;perimeter=backbonePerimeter;points=[];outlineConnect=0;" parent="1" vertex="1"><mxGeometry x="40" y="340" width="1080" height="10" as="geometry"/></mxCell><mxCell id="3uPyM4dLJkamjNfrwiah-7" value="" style="line;strokeWidth=4;html=1;perimeter=backbonePerimeter;points=[];outlineConnect=0;" parent="1" vertex="1"><mxGeometry x="40" y="464" width="1080" height="10" as="geometry"/></mxCell><mxCell id="3uPyM4dLJkamjNfrwiah-8" value="Todos" style="text;html=1;fontSize=24;fontStyle=1;verticalAlign=middle;align=center;" parent="1" vertex="1"><mxGeometry x="40" y="390" width="80" height="40" as="geometry"/></mxCell><mxCell id="3uPyM4dLJkamjNfrwiah-10" value="Todos-Page" style="rounded=0;whiteSpace=wrap;html=1;fillColor=#F5AB50;strokeColor=#909090;fontColor=#1A1A1A;" parent="1" vertex="1"><mxGeometry x="960" y="380" width="120" height="60" as="geometry"/></mxCell><mxCell id="3uPyM4dLJkamjNfrwiah-13" style="edgeStyle=orthogonalEdgeStyle;rounded=0;orthogonalLoop=1;jettySize=auto;html=1;entryX=0;entryY=0.5;entryDx=0;entryDy=0;" parent="1" source="3uPyM4dLJkamjNfrwiah-12" target="lvuvdrBWyZiA24m6l7V2-7" edge="1"><mxGeometry relative="1" as="geometry"/></mxCell><mxCell id="3uPyM4dLJkamjNfrwiah-15" style="edgeStyle=orthogonalEdgeStyle;rounded=0;orthogonalLoop=1;jettySize=auto;html=1;entryX=1;entryY=0.5;entryDx=0;entryDy=0;" parent="1" source="3uPyM4dLJkamjNfrwiah-12" target="POxlMTt3T_DVdTNcK8oy-8" edge="1"><mxGeometry relative="1" as="geometry"/></mxCell><mxCell id="3uPyM4dLJkamjNfrwiah-12" value="&lt;div&gt;TodoHub&lt;/div&gt;" style="rounded=0;whiteSpace=wrap;html=1;fillColor=#F5AB50;strokeColor=#909090;fontColor=#1A1A1A;" parent="1" vertex="1"><mxGeometry x="560" y="380" width="120" height="60" as="geometry"/></mxCell><mxCell id="3uPyM4dLJkamjNfrwiah-17" value="Pantry" style="text;html=1;fontSize=24;fontStyle=1;verticalAlign=middle;align=center;" parent="1" vertex="1"><mxGeometry x="40" y="520" width="80" height="40" as="geometry"/></mxCell><mxCell id="3uPyM4dLJkamjNfrwiah-24" style="edgeStyle=orthogonalEdgeStyle;rounded=0;orthogonalLoop=1;jettySize=auto;html=1;entryX=0;entryY=0.5;entryDx=0;entryDy=0;" parent="1" source="3uPyM4dLJkamjNfrwiah-18" target="3uPyM4dLJkamjNfrwiah-19" edge="1"><mxGeometry relative="1" as="geometry"/></mxCell><mxCell id="3uPyM4dLJkamjNfrwiah-18" value="Database" style="rounded=0;whiteSpace=wrap;html=1;fillColor=#F5AB50;strokeColor=#909090;fontColor=#1A1A1A;" parent="1" vertex="1"><mxGeometry x="320" y="510" width="120" height="60" as="geometry"/></mxCell><mxCell id="3uPyM4dLJkamjNfrwiah-23" style="edgeStyle=orthogonalEdgeStyle;rounded=0;orthogonalLoop=1;jettySize=auto;html=1;entryX=0;entryY=0.5;entryDx=0;entryDy=0;" parent="1" source="3uPyM4dLJkamjNfrwiah-19" target="3uPyM4dLJkamjNfrwiah-20" edge="1"><mxGeometry relative="1" as="geometry"/></mxCell><mxCell id="3uPyM4dLJkamjNfrwiah-19" value="PantryHub" style="rounded=0;whiteSpace=wrap;html=1;fillColor=#F5AB50;strokeColor=#909090;fontColor=#1A1A1A;" parent="1" vertex="1"><mxGeometry x="560" y="510" width="120" height="60" as="geometry"/></mxCell><mxCell id="3uPyM4dLJkamjNfrwiah-22" style="edgeStyle=orthogonalEdgeStyle;rounded=0;orthogonalLoop=1;jettySize=auto;html=1;entryX=0;entryY=0.5;entryDx=0;entryDy=0;" parent="1" source="3uPyM4dLJkamjNfrwiah-20" target="3uPyM4dLJkamjNfrwiah-21" edge="1"><mxGeometry relative="1" as="geometry"/></mxCell><mxCell id="3uPyM4dLJkamjNfrwiah-20" value="Blazor Server&lt;br&gt;Don't know how yet" style="rounded=0;whiteSpace=wrap;html=1;fillColor=#F5AB50;strokeColor=#909090;fontColor=#1A1A1A;" parent="1" vertex="1"><mxGeometry x="800" y="510" width="120" height="60" as="geometry"/></mxCell><mxCell id="3uPyM4dLJkamjNfrwiah-21" value="Pantry-Page" style="rounded=0;whiteSpace=wrap;html=1;fillColor=#F5AB50;strokeColor=#909090;fontColor=#1A1A1A;" parent="1" vertex="1"><mxGeometry x="960" y="510" width="120" height="60" as="geometry"/></mxCell><mxCell id="3uPyM4dLJkamjNfrwiah-25" value="" style="line;strokeWidth=4;html=1;perimeter=backbonePerimeter;points=[];outlineConnect=0;" parent="1" vertex="1"><mxGeometry x="40" y="620" width="1080" height="10" as="geometry"/></mxCell><mxCell id="3uPyM4dLJkamjNfrwiah-26" value="&lt;div&gt;Smart Client (SignalR)&lt;/div&gt;&lt;div&gt;&lt;hr&gt;RaspberryPi&lt;/div&gt;" style="rounded=0;whiteSpace=wrap;html=1;fillColor=#F5AB50;strokeColor=#909090;fontColor=#1A1A1A;" parent="1" vertex="1"><mxGeometry x="800" y="180" width="130" height="60" as="geometry"/></mxCell><mxCell id="3uPyM4dLJkamjNfrwiah-27" value="Dump Client (TCP)&lt;br&gt;&lt;hr&gt;Arduino" style="rounded=0;whiteSpace=wrap;html=1;fillColor=#F5AB50;strokeColor=#909090;fontColor=#1A1A1A;" parent="1" vertex="1"><mxGeometry x="800" y="260" width="120" height="60" as="geometry"/></mxCell><mxCell id="3uPyM4dLJkamjNfrwiah-31" style="edgeStyle=orthogonalEdgeStyle;rounded=0;orthogonalLoop=1;jettySize=auto;html=1;entryX=0;entryY=0.5;entryDx=0;entryDy=0;" parent="1" source="3uPyM4dLJkamjNfrwiah-29" target="lvuvdrBWyZiA24m6l7V2-1" edge="1"><mxGeometry relative="1" as="geometry"/></mxCell><mxCell id="3uPyM4dLJkamjNfrwiah-32" style="edgeStyle=orthogonalEdgeStyle;rounded=0;orthogonalLoop=1;jettySize=auto;html=1;entryX=0;entryY=0.5;entryDx=0;entryDy=0;" parent="1" source="3uPyM4dLJkamjNfrwiah-29" target="aUC-sAqKPHOMLerEOEC_-2" edge="1"><mxGeometry relative="1" as="geometry"/></mxCell><mxCell id="3uPyM4dLJkamjNfrwiah-29" value="Watertank-Sensor" style="rounded=0;whiteSpace=wrap;html=1;fillColor=#F5AB50;strokeColor=#909090;fontColor=#1A1A1A;" parent="1" vertex="1"><mxGeometry x="160" y="80" width="120" height="30" as="geometry"/></mxCell><mxCell id="3uPyM4dLJkamjNfrwiah-33" style="edgeStyle=orthogonalEdgeStyle;rounded=0;orthogonalLoop=1;jettySize=auto;html=1;entryX=0;entryY=0.5;entryDx=0;entryDy=0;" parent="1" source="3uPyM4dLJkamjNfrwiah-30" target="lvuvdrBWyZiA24m6l7V2-1" edge="1"><mxGeometry relative="1" as="geometry"/></mxCell><mxCell id="3uPyM4dLJkamjNfrwiah-34" style="edgeStyle=orthogonalEdgeStyle;rounded=0;orthogonalLoop=1;jettySize=auto;html=1;entryX=0;entryY=0.5;entryDx=0;entryDy=0;" parent="1" source="3uPyM4dLJkamjNfrwiah-30" target="aUC-sAqKPHOMLerEOEC_-2" edge="1"><mxGeometry relative="1" as="geometry"/></mxCell><mxCell id="3uPyM4dLJkamjNfrwiah-30" value="Pump-Controller" style="rounded=0;whiteSpace=wrap;html=1;fillColor=#F5AB50;strokeColor=#909090;fontColor=#1A1A1A;" parent="1" vertex="1"><mxGeometry x="160" y="130" width="120" height="30" as="geometry"/></mxCell></root></mxGraphModel></diagram></mxfile>